<svg width="215" height="50" viewBox="0 0 215 50" fill="none" xmlns="http://www.w3.org/2000/svg">
<g clip-path="url(#clip0_5_862)">
<path d="M130.46 8.975L128.75 10.105L127.95 8.795L126.7 6.735L125.45 8.795L124.65 10.105L123.77 9.635C123.64 9.565 123.53 9.495 123.43 9.435C123.33 9.375 123.26 9.285 123.22 9.165C123.13 8.935 123.17 8.685 123.33 8.425L123.57 8.035L124.58 6.375L124.74 6.115L125.86 4.275H127.57L128.68 6.115L128.85 6.375L129.85 8.035L130.47 8.975H130.46ZM128.37 19.615V15.155C128.37 14.905 128.46 14.685 128.63 14.515C128.81 14.335 129.03 14.245 129.29 14.245H130.92C131.23 14.245 131.38 14.095 131.38 13.795V13.005C131.38 12.695 131.22 12.535 130.92 12.535H128.37V10.695H133.23V16.075H130.67C130.37 16.075 130.22 16.225 130.22 16.545V17.335C130.22 17.635 130.37 17.785 130.67 17.785H133.23V19.625H128.37V19.615ZM133.18 10.095H131.35V4.265H133.18V10.095Z" fill="#8C8C70"/>
<path d="M139.39 4.965H140.79V4.305H142.61V10.135H140.79V9.405H138.5C138.26 9.625 137.99 9.805 137.68 9.925C137.37 10.055 137.05 10.115 136.7 10.115C136.35 10.115 136 10.045 135.69 9.915C135.38 9.785 135.09 9.595 134.86 9.355C134.62 9.115 134.43 8.835 134.3 8.525C134.16 8.205 134.1 7.865 134.1 7.515C134.1 7.015 134.23 6.555 134.49 6.135H134.01V4.295H135.88V3.065H137.72V4.295H139.4V4.965H139.39ZM136.69 8.295C136.9 8.295 137.09 8.215 137.24 8.065C137.39 7.915 137.47 7.735 137.47 7.515C137.47 7.295 137.39 7.115 137.24 6.965C137.09 6.815 136.91 6.735 136.69 6.735C136.47 6.735 136.29 6.815 136.14 6.965C135.99 7.115 135.91 7.295 135.91 7.515C135.91 7.735 135.99 7.915 136.14 8.065C136.29 8.215 136.47 8.295 136.69 8.295ZM137.88 11.615C137.88 11.365 137.97 11.145 138.14 10.955C138.33 10.785 138.55 10.695 138.8 10.695H139.71V13.375C139.71 13.675 139.86 13.825 140.16 13.825H142.5V15.645H137.88V11.605V11.615ZM139.19 6.795C139.26 7.035 139.3 7.275 139.3 7.525V7.595H140.78V6.795H139.19Z" fill="#8C8C70"/>
<path d="M149.07 6.105H148.6C148.86 6.525 149 6.985 149 7.485C149 7.845 148.93 8.185 148.79 8.495C148.65 8.815 148.46 9.085 148.23 9.325C147.99 9.555 147.72 9.745 147.4 9.885C147.08 10.025 146.74 10.095 146.38 10.095C146.02 10.095 145.68 10.025 145.36 9.885C145.04 9.745 144.76 9.555 144.52 9.325C144.28 9.095 144.09 8.815 143.95 8.495C143.81 8.175 143.74 7.835 143.74 7.485C143.74 7.235 143.78 6.985 143.85 6.755C143.92 6.525 144.02 6.305 144.15 6.095H143.66V4.255H145.54V3.025H147.38V4.255H149.06V6.095L149.07 6.105ZM146.38 8.265C146.59 8.265 146.76 8.185 146.91 8.035C147.06 7.875 147.13 7.695 147.13 7.495C147.13 7.295 147.06 7.095 146.91 6.945C146.76 6.795 146.58 6.715 146.38 6.715C146.18 6.715 145.99 6.795 145.84 6.945C145.69 7.095 145.62 7.275 145.62 7.495C145.62 7.715 145.7 7.885 145.84 8.035C145.99 8.185 146.17 8.265 146.38 8.265ZM153.66 8.135H152.32V10.105H150.5V4.265H152.32V6.305H153.66V8.125V8.135Z" fill="#8C8C70"/>
<path d="M160.95 9.905V11.725H154.64V9.905H160.95ZM154.71 8.925V5.195C154.71 4.935 154.8 4.715 154.97 4.535C155.14 4.355 155.36 4.275 155.61 4.275H156.52V6.635C156.52 6.945 156.67 7.105 156.99 7.105H160.91V8.935H154.71V8.925ZM154.71 17.005V13.275C154.71 13.015 154.8 12.795 154.97 12.615C155.14 12.435 155.36 12.355 155.61 12.355H156.52V14.715C156.52 15.025 156.67 15.185 156.99 15.185H160.91V17.015H154.71V17.005Z" fill="#8C8C70"/>
<path d="M184.72 7.265H183.48C184.16 8.365 184.5 9.565 184.5 10.865C184.5 12.355 184.08 13.675 183.24 14.825C182.4 15.975 181.32 16.785 180 17.265H180.25V19.875H184.97V24.625H171.04V19.875H175.51V17.335C174.85 17.105 174.23 16.785 173.66 16.355C173.09 15.935 172.61 15.435 172.2 14.885C171.8 14.325 171.48 13.705 171.25 13.025C171.02 12.345 170.91 11.625 170.91 10.885C170.91 9.585 171.25 8.385 171.93 7.285H170.69V2.485H175.56V0.545H180.34V2.485H184.71V7.265H184.72ZM177.71 12.885C178.27 12.885 178.74 12.685 179.14 12.295C179.53 11.905 179.73 11.425 179.73 10.865C179.73 10.305 179.53 9.835 179.14 9.435C178.75 9.045 178.27 8.845 177.71 8.845C177.15 8.845 176.68 9.045 176.28 9.435C175.89 9.825 175.69 10.305 175.69 10.865C175.69 11.425 175.89 11.895 176.28 12.295C176.67 12.685 177.15 12.885 177.71 12.885ZM181.65 49.465V37.865C181.65 37.205 181.88 36.645 182.33 36.185C182.81 35.705 183.37 35.475 184.04 35.475H186.34C187.15 35.475 187.55 35.085 187.55 34.295V32.245C187.55 31.435 187.15 31.035 186.34 31.035H181.65V26.255H192.29V40.245H187.61C186.82 40.245 186.43 40.645 186.43 41.455V43.505C186.43 44.295 186.82 44.685 187.61 44.685H192.29V49.465H181.65ZM195.8 15.245H192.33V24.705H187.58V5.185H192.33V10.495H195.8V15.245Z" fill="#66B821"/>
<path d="M208.11 17.255V19.865H214.19V24.615H197.78V19.865H203.36V17.255H197.93V7.545C197.93 6.865 198.16 6.305 198.61 5.865C199.04 5.415 199.59 5.185 200.25 5.185H214.15V9.875H203.79C203.42 9.875 203.13 9.995 202.94 10.245C202.74 10.495 202.63 10.825 202.61 11.235C202.63 11.585 202.74 11.895 202.94 12.165C203.14 12.435 203.42 12.565 203.79 12.565H214.15V17.255H208.1H208.11ZM205.91 26.095C206.98 26.095 207.99 26.295 208.93 26.695C209.87 27.095 210.69 27.655 211.4 28.355C212.1 29.055 212.66 29.885 213.06 30.825C213.46 31.765 213.66 32.765 213.66 33.815C213.66 34.865 213.46 35.865 213.06 36.805C212.66 37.745 212.1 38.565 211.4 39.255C210.7 39.945 209.87 40.495 208.93 40.895C207.99 41.295 206.98 41.505 205.91 41.505C204.84 41.505 203.86 41.305 202.93 40.895C202 40.495 201.18 39.945 200.48 39.255C199.78 38.565 199.22 37.745 198.82 36.805C198.42 35.865 198.22 34.865 198.22 33.815C198.22 32.765 198.42 31.765 198.82 30.825C199.22 29.885 199.78 29.065 200.48 28.355C201.18 27.655 202 27.095 202.93 26.695C203.86 26.295 204.85 26.095 205.91 26.095ZM205.94 36.675C206.33 36.675 206.71 36.605 207.06 36.455C207.41 36.315 207.72 36.105 207.98 35.855C208.24 35.595 208.45 35.295 208.6 34.935C208.75 34.585 208.83 34.215 208.83 33.815C208.83 33.415 208.75 33.045 208.6 32.695C208.44 32.345 208.24 32.035 207.98 31.775C207.72 31.515 207.42 31.305 207.06 31.155C206.71 31.005 206.34 30.925 205.94 30.925C205.54 30.925 205.17 31.005 204.82 31.155C204.47 31.315 204.16 31.515 203.91 31.775C203.65 32.035 203.44 32.335 203.29 32.695C203.14 33.045 203.06 33.415 203.06 33.815C203.06 34.215 203.14 34.575 203.29 34.935C203.45 35.285 203.65 35.595 203.91 35.855C204.17 36.115 204.47 36.315 204.82 36.455C205.17 36.595 205.54 36.675 205.94 36.675Z" fill="#66B821"/>
<path d="M149.59 20.875V26.705H147.76V24.735H146.34L146.91 25.595L145.2 26.725L144.4 25.415L143.15 23.355L141.9 25.415L141.11 26.725L140.22 26.255C140.1 26.185 139.99 26.115 139.89 26.055C139.79 25.995 139.71 25.895 139.67 25.785C139.58 25.555 139.62 25.305 139.78 25.045L140.02 24.655L141.03 22.995L141.18 22.735H141.19L139.75 22.725V20.895H142.23V19.965H144.06V20.895H146.79V22.725H145.12L145.29 22.995L145.83 23.875V22.905H147.76V20.865H149.59V20.875ZM146.83 32.335C146.47 32.335 146.14 32.265 145.82 32.135C145.51 31.995 145.23 31.815 144.99 31.585C144.75 31.355 144.57 31.075 144.43 30.755C144.29 30.435 144.23 30.095 144.23 29.745C144.23 29.395 144.3 29.055 144.43 28.735C144.57 28.425 144.75 28.145 144.99 27.905C145.23 27.665 145.5 27.475 145.82 27.345C146.13 27.205 146.47 27.145 146.83 27.145C147.19 27.145 147.53 27.215 147.84 27.345C148.15 27.475 148.44 27.665 148.68 27.905C148.92 28.145 149.11 28.415 149.24 28.735C149.38 29.045 149.44 29.385 149.44 29.745C149.44 30.105 149.37 30.445 149.24 30.755C149.1 31.075 148.92 31.345 148.68 31.585C148.44 31.815 148.16 32.005 147.84 32.135C147.52 32.265 147.18 32.335 146.83 32.335ZM146.83 28.975C146.62 28.975 146.44 29.055 146.29 29.205C146.14 29.355 146.06 29.535 146.06 29.745C146.06 29.955 146.14 30.145 146.29 30.295C146.44 30.445 146.62 30.525 146.83 30.525C147.04 30.525 147.23 30.445 147.38 30.295C147.53 30.145 147.61 29.965 147.61 29.745C147.61 29.525 147.53 29.355 147.38 29.205C147.23 29.055 147.05 28.975 146.83 28.975Z" fill="#FF8001"/>
<path d="M157.64 24.495L155.93 25.645L155.13 24.335L153.88 22.275L152.63 24.335L151.84 25.645L150.95 25.165C150.82 25.105 150.71 25.035 150.61 24.965C150.51 24.895 150.44 24.805 150.4 24.695C150.32 24.465 150.36 24.215 150.51 23.955L150.75 23.565L151.76 21.905L151.92 21.645L153.04 19.805H154.75L155.86 21.645L156.03 21.905L157.03 23.565L157.65 24.495H157.64ZM157.02 26.475V28.305H150.71V26.475H152.99V24.675H154.82V26.475H157.03H157.02Z" fill="#FF8001"/>
<path d="M162.46 26.715H158.36V21.785C158.36 21.535 158.45 21.315 158.62 21.145C158.8 20.965 159.01 20.885 159.26 20.885H160.18V24.435C160.18 24.735 160.33 24.885 160.63 24.885H162.46V26.715ZM161.95 28.175C161.95 27.925 162.04 27.705 162.21 27.515C162.4 27.335 162.62 27.255 162.87 27.255H163.78V29.935C163.78 30.235 163.93 30.385 164.23 30.385H166.99V32.215H161.96V28.175H161.95ZM165.22 24.175V23.375H163.41V21.545H165.22V20.885H167.04V26.715H165.22V25.985H163.41V24.155H165.22V24.175Z" fill="#FF8001"/>
<path d="M91.1799 15.265L86.7399 18.215L84.66 14.805L81.4 9.435L78.1399 14.805L76.0899 18.215L73.76 17.005C73.45 16.815 73.1599 16.645 72.8899 16.475C72.6199 16.305 72.43 16.075 72.33 15.765C72.1 15.165 72.1999 14.525 72.6099 13.845L73.23 12.825L75.87 8.515L76.2699 7.835L76.3 7.805H72.55V3.045H78.9999V0.625H83.7499V3.045H90.8499V7.795H86.51V7.825L86.94 8.505L89.55 12.815L91.16 15.265H91.1799ZM73.19 24.515V19.765H89.5999V24.515H83.6699V26.345C84.4999 26.575 85.2599 26.915 85.9499 27.385C86.6399 27.855 87.25 28.405 87.76 29.065C88.28 29.715 88.6799 30.445 88.9699 31.255C89.26 32.065 89.4 32.905 89.4 33.795C89.4 34.845 89.2 35.845 88.8 36.785C88.4 37.725 87.8399 38.545 87.1399 39.235C86.4399 39.925 85.6099 40.475 84.6699 40.875C83.7299 41.275 82.7199 41.475 81.65 41.475C80.58 41.475 79.5999 41.275 78.6699 40.875C77.7399 40.475 76.9199 39.925 76.2199 39.235C75.5199 38.545 74.9599 37.725 74.5599 36.785C74.1599 35.845 73.9599 34.845 73.9599 33.795C73.9599 32.965 74.08 32.185 74.33 31.435C74.58 30.695 74.9199 30.005 75.3499 29.375C75.7799 28.745 76.3099 28.195 76.9199 27.715C77.5299 27.235 78.1999 26.855 78.9199 26.565V24.515H73.1799H73.19ZM81.69 36.645C82.08 36.645 82.4599 36.575 82.8099 36.425C83.1599 36.285 83.47 36.075 83.73 35.815C83.99 35.555 84.1999 35.255 84.3499 34.905C84.4999 34.555 84.58 34.185 84.58 33.785C84.58 33.385 84.4999 33.015 84.3499 32.665C84.1899 32.315 83.99 32.005 83.73 31.755C83.47 31.495 83.1699 31.285 82.8099 31.135C82.4599 30.975 82.09 30.905 81.69 30.905C81.29 30.905 80.9199 30.985 80.5699 31.135C80.2199 31.285 79.91 31.495 79.66 31.755C79.4 32.015 79.1899 32.315 79.0399 32.665C78.8799 33.015 78.8099 33.385 78.8099 33.785C78.8099 34.185 78.8899 34.545 79.0399 34.905C79.1899 35.255 79.4 35.565 79.66 35.815C79.92 36.065 80.2199 36.275 80.5699 36.425C80.9199 36.565 81.29 36.645 81.69 36.645Z" fill="#3787BC"/>
<path d="M103.9 20.415H93.23V7.605C93.23 6.945 93.46 6.385 93.91 5.935C94.36 5.485 94.92 5.255 95.59 5.255H97.98V14.505C97.98 15.295 98.37 15.685 99.16 15.685H103.91V20.435L103.9 20.415ZM101.26 22.465C101.76 22.005 102.31 21.785 102.94 21.785H112.65V34.755H100.58V24.145C100.58 23.485 100.81 22.925 101.26 22.465ZM105.29 28.885C105.29 29.675 105.68 30.065 106.47 30.065H107.87V26.495H106.47C105.68 26.495 105.29 26.885 105.29 27.675V28.885ZM115.84 15.295H112.36V20.415H107.61V5.245H112.36V10.555H115.84V15.305V15.295Z" fill="#3787BC"/>
<path d="M123.17 31.945V32.035C123.15 32.985 123 33.745 122.74 34.315C122.47 34.885 122.16 35.325 121.81 35.635C121.42 36.005 120.97 36.265 120.48 36.415V34.645C119.76 34.645 119.14 34.385 118.63 33.865C118.12 33.345 117.87 32.725 117.87 32.005C117.87 31.285 118.13 30.665 118.65 30.145C119.17 29.625 119.8 29.365 120.54 29.365C121.28 29.365 121.88 29.615 122.39 30.105C122.9 30.605 123.16 31.215 123.18 31.935L123.17 31.945Z" fill="#AF46A0"/>
<path d="M35.24 4.105V9.935H33.41V7.965H31.99L32.56 8.825L30.85 9.955L30.05 8.645L28.8 6.585L27.55 8.645L26.76 9.955L25.87 9.485C25.75 9.415 25.64 9.345 25.54 9.285C25.44 9.225 25.36 9.125 25.32 9.015C25.23 8.785 25.27 8.535 25.43 8.275L25.67 7.885L26.68 6.225L26.83 5.965H26.84L25.4 5.955V4.125H27.88V3.195H29.71V4.125H32.44V5.955H30.77L30.94 6.225L31.48 7.105V6.135H33.41V4.095H35.24V4.105ZM32.48 15.565C32.12 15.565 31.79 15.495 31.47 15.365C31.16 15.225 30.88 15.045 30.64 14.815C30.4 14.585 30.21 14.305 30.08 13.985C29.94 13.665 29.88 13.325 29.88 12.975C29.88 12.625 29.95 12.285 30.08 11.965C30.22 11.655 30.4 11.375 30.64 11.135C30.88 10.895 31.15 10.705 31.47 10.575C31.78 10.435 32.12 10.375 32.48 10.375C32.84 10.375 33.18 10.445 33.49 10.575C33.81 10.715 34.09 10.895 34.33 11.135C34.57 11.375 34.75 11.645 34.89 11.965C35.03 12.275 35.09 12.615 35.09 12.975C35.09 13.335 35.02 13.675 34.89 13.985C34.75 14.305 34.57 14.575 34.33 14.815C34.09 15.045 33.81 15.235 33.49 15.365C33.17 15.505 32.83 15.565 32.48 15.565ZM32.48 12.205C32.27 12.205 32.09 12.285 31.94 12.435C31.79 12.585 31.71 12.765 31.71 12.975C31.71 13.185 31.79 13.375 31.94 13.525C32.09 13.675 32.27 13.755 32.48 13.755C32.69 13.755 32.88 13.675 33.03 13.525C33.18 13.375 33.26 13.195 33.26 12.975C33.26 12.755 33.18 12.585 33.03 12.435C32.88 12.285 32.7 12.205 32.48 12.205Z" fill="#FF8001"/>
<path d="M43.29 7.725L41.58 8.875L40.78 7.565L39.53 5.505L38.28 7.565L37.49 8.875L36.6 8.395C36.47 8.335 36.36 8.265 36.26 8.195C36.16 8.125 36.09 8.035 36.05 7.925C35.97 7.695 36.01 7.445 36.16 7.185L36.4 6.795L37.41 5.135L37.57 4.875L38.69 3.035H40.4L41.51 4.875L41.68 5.135L42.68 6.795L43.3 7.725H43.29ZM42.67 9.705V11.535H36.36V9.705H38.64V7.905H40.47V9.705H42.68H42.67Z" fill="#FF8001"/>
<path d="M48.11 9.945H44.01V5.015C44.01 4.765 44.1 4.545 44.27 4.375C44.45 4.195 44.66 4.115 44.91 4.115H45.83V7.665C45.83 7.965 45.98 8.115 46.28 8.115H48.11V9.945ZM47.6 11.405C47.6 11.155 47.69 10.935 47.86 10.745C48.05 10.565 48.27 10.485 48.52 10.485H49.43V13.165C49.43 13.465 49.58 13.615 49.88 13.615H52.64V15.445H47.61V11.405H47.6ZM50.87 7.405V6.605H49.06V4.775H50.87V4.115H52.69V9.945H50.87V9.215H49.06V7.385H50.87V7.405Z" fill="#FF8001"/>
<path d="M56.4799 9.945C56.0699 9.945 55.6899 9.865 55.3399 9.715C54.9899 9.565 54.6799 9.355 54.4199 9.085C54.1599 8.825 53.9499 8.515 53.7899 8.165C53.6399 7.815 53.5599 7.435 53.5599 7.025C53.5599 6.615 53.6399 6.235 53.7899 5.875C53.9399 5.515 54.1499 5.205 54.4199 4.945C54.6799 4.685 54.9899 4.475 55.3399 4.315C55.6899 4.165 56.0699 4.085 56.4799 4.085C56.8899 4.085 57.2699 4.165 57.6299 4.315C57.9899 4.475 58.2999 4.675 58.5599 4.945C58.8199 5.205 59.0299 5.515 59.1899 5.875C59.3499 6.235 59.4199 6.615 59.4199 7.025C59.4199 7.435 59.3399 7.815 59.1899 8.165C59.0399 8.515 58.8299 8.825 58.5599 9.085C58.2999 9.345 57.9899 9.555 57.6299 9.715C57.2699 9.875 56.8899 9.945 56.4799 9.945ZM56.4799 6.155C56.2399 6.155 56.0399 6.235 55.8699 6.405C55.6999 6.575 55.6199 6.775 55.6199 7.025C55.6199 7.275 55.6999 7.465 55.8699 7.635C56.0399 7.805 56.2399 7.885 56.4799 7.885C56.7199 7.885 56.9299 7.805 57.0999 7.635C57.2699 7.465 57.3499 7.265 57.3499 7.025C57.3499 6.785 57.2699 6.575 57.0999 6.405C56.9299 6.235 56.7299 6.155 56.4799 6.155ZM62.6599 9.915H60.8299V4.075H62.6599V9.905V9.915Z" fill="#8C8C70"/>
<path d="M45.4 23.385H44.92C45.18 23.805 45.31 24.265 45.31 24.765C45.31 25.125 45.24 25.465 45.11 25.775C44.98 26.085 44.79 26.375 44.55 26.605C44.31 26.845 44.03 27.035 43.72 27.165C43.41 27.295 43.06 27.365 42.71 27.365C42.36 27.365 42.01 27.295 41.7 27.165C41.39 27.035 41.1 26.845 40.87 26.605C40.63 26.365 40.44 26.085 40.31 25.775C40.18 25.465 40.11 25.115 40.11 24.765C40.11 24.265 40.24 23.805 40.5 23.385H40.02V21.545H41.89V20.315H43.73V21.545H45.41V23.385H45.4ZM42.7 25.545C42.91 25.545 43.1 25.465 43.25 25.315C43.4 25.165 43.48 24.985 43.48 24.765C43.48 24.545 43.4 24.365 43.25 24.215C43.1 24.065 42.92 23.985 42.7 23.985C42.48 23.985 42.3 24.065 42.15 24.215C42 24.365 41.92 24.545 41.92 24.765C41.92 24.985 42 25.165 42.15 25.315C42.3 25.465 42.48 25.545 42.7 25.545ZM47.63 32.895C47.27 32.895 46.94 32.825 46.62 32.695C46.31 32.555 46.03 32.375 45.79 32.145C45.55 31.915 45.36 31.635 45.23 31.315C45.1 30.995 45.03 30.655 45.03 30.305C45.03 29.955 45.1 29.615 45.23 29.295C45.37 28.985 45.55 28.705 45.79 28.465C46.03 28.225 46.3 28.035 46.62 27.905C46.93 27.765 47.27 27.705 47.63 27.705C47.99 27.705 48.33 27.775 48.64 27.905C48.96 28.045 49.24 28.225 49.47 28.465C49.71 28.705 49.9 28.975 50.03 29.295C50.17 29.605 50.23 29.945 50.23 30.305C50.23 30.665 50.16 31.005 50.03 31.315C49.9 31.625 49.71 31.905 49.47 32.145C49.23 32.375 48.95 32.565 48.64 32.695C48.32 32.835 47.98 32.895 47.63 32.895ZM49.99 21.535V27.365H48.34V25.395H47.64V27.365H45.99V21.535H47.64V23.575H48.34V21.535H49.99ZM47.63 29.525C47.42 29.525 47.24 29.605 47.09 29.755C46.94 29.905 46.86 30.085 46.86 30.295C46.86 30.505 46.94 30.695 47.09 30.845C47.24 30.995 47.42 31.075 47.63 31.075C47.84 31.075 48.03 30.995 48.18 30.845C48.33 30.695 48.41 30.515 48.41 30.295C48.41 30.075 48.33 29.905 48.18 29.755C48.03 29.605 47.85 29.525 47.63 29.525Z" fill="#8C8C70"/>
<path d="M57.5001 27.145V28.975H51.1901V27.145H53.4701V26.155H51.3301V19.805H53.1901V21.125H55.6701V19.805H56.6001C56.8501 19.805 57.0701 19.895 57.2601 20.075C57.4401 20.255 57.5301 20.475 57.5301 20.735V26.155H55.2901V27.145H57.5001ZM57.5101 29.605V33.335C57.5101 33.595 57.4201 33.815 57.2501 33.995C57.0701 34.165 56.8601 34.255 56.6101 34.255H55.7001V31.895C55.7001 31.585 55.5501 31.425 55.2301 31.425H51.2501V29.595H57.5101V29.605ZM55.6701 24.305V22.985H53.1901V24.305H55.6701Z" fill="#8C8C70"/>
<path d="M63.96 23.345H63.4901C63.7501 23.765 63.89 24.225 63.89 24.725C63.89 25.085 63.82 25.425 63.68 25.735C63.5401 26.055 63.35 26.325 63.12 26.565C62.89 26.795 62.6101 26.985 62.2901 27.125C61.9701 27.265 61.6301 27.335 61.2701 27.335C60.91 27.335 60.57 27.265 60.25 27.125C59.93 26.985 59.65 26.795 59.41 26.565C59.17 26.335 58.98 26.055 58.84 25.735C58.7 25.415 58.6301 25.075 58.6301 24.725C58.6301 24.475 58.6701 24.225 58.7401 23.995C58.8101 23.765 58.9101 23.545 59.0401 23.335H58.55V21.495H60.43V20.265H62.2701V21.495H63.9501V23.335L63.96 23.345ZM61.2701 25.505C61.4801 25.505 61.65 25.425 61.8 25.275C61.95 25.115 62.03 24.935 62.03 24.735C62.03 24.535 61.95 24.335 61.8 24.185C61.65 24.035 61.4701 23.955 61.2701 23.955C61.0701 23.955 60.88 24.035 60.73 24.185C60.58 24.335 60.51 24.515 60.51 24.735C60.51 24.955 60.58 25.125 60.73 25.275C60.88 25.425 61.0601 25.505 61.2701 25.505ZM62.35 28.855C62.35 28.605 62.4401 28.385 62.6101 28.195C62.8001 28.025 63.0201 27.935 63.2701 27.935H64.18V30.615C64.18 30.915 64.33 31.065 64.63 31.065H66.9701V32.885H62.35V28.845V28.855ZM68.5501 25.375H67.21V27.345H65.38V21.515H67.21V23.555H68.5501V25.375Z" fill="#8C8C70"/>
<path d="M15.67 27.205C15.09 30.695 16.7 34.255 16.17 37.745C16.03 38.645 15.76 39.535 15.89 40.435C16.06 41.555 16.86 42.495 17.84 43.055C18.82 43.615 19.96 43.835 21.08 43.945C21.97 44.025 22.88 44.045 23.77 43.875C26 43.465 27.91 41.935 29.24 40.095C30.57 38.255 31.39 36.105 32.16 33.965C32.39 33.325 32.62 32.675 32.68 31.995C32.99 28.485 31.58 24.595 28.87 22.295C28.11 21.655 27.27 21.125 26.42 20.595C22.03 17.845 16.44 22.685 15.68 27.195L15.67 27.205Z" fill="#ADCAE2"/>
<path d="M18.27 27.645C18.15 27.645 18.04 27.585 17.98 27.475C17.89 27.315 17.94 27.105 18.1 27.015C18.74 26.645 20.07 26.805 20.22 26.825C20.4 26.845 20.53 27.015 20.51 27.205C20.49 27.385 20.32 27.515 20.13 27.495C19.65 27.435 18.77 27.405 18.44 27.595C18.39 27.625 18.33 27.645 18.27 27.645Z" fill="black"/>
<path d="M27.8599 27.645C27.8099 27.645 27.7599 27.635 27.7099 27.605C26.9899 27.235 25.8499 27.535 25.8399 27.535C25.6599 27.585 25.4799 27.475 25.4299 27.295C25.3799 27.115 25.4899 26.935 25.6699 26.885C25.7299 26.865 27.0699 26.515 28.0199 27.005C28.1799 27.095 28.2499 27.295 28.1599 27.455C28.0999 27.575 27.9799 27.635 27.8599 27.635V27.645Z" fill="black"/>
<path d="M19.71 30.535C20.0524 30.535 20.33 30.1365 20.33 29.645C20.33 29.1535 20.0524 28.755 19.71 28.755C19.3675 28.755 19.09 29.1535 19.09 29.645C19.09 30.1365 19.3675 30.535 19.71 30.535Z" fill="black"/>
<path d="M26.57 30.535C26.9124 30.535 27.19 30.1365 27.19 29.645C27.19 29.1535 26.9124 28.755 26.57 28.755C26.2275 28.755 25.95 29.1535 25.95 29.645C25.95 30.1365 26.2275 30.535 26.57 30.535Z" fill="black"/>
<path d="M23.46 33.535C23.46 33.535 23.44 33.535 23.43 33.535C22.99 33.495 22.67 33.345 22.46 33.065C22.19 32.695 22.27 32.265 22.28 32.215C22.32 32.035 22.5 31.925 22.68 31.955C22.86 31.995 22.97 32.175 22.94 32.345C22.94 32.345 22.91 32.535 23.01 32.655C23.11 32.795 23.33 32.835 23.49 32.845C23.67 32.865 23.81 33.025 23.8 33.205C23.79 33.385 23.64 33.515 23.47 33.515L23.46 33.535Z" fill="black"/>
<path d="M23.03 36.145C18.16 36.145 17.64 34.035 17.62 33.945C17.58 33.765 17.69 33.585 17.88 33.545C18.06 33.505 18.24 33.615 18.28 33.795C18.29 33.835 18.81 35.475 23.03 35.475C23.22 35.475 23.37 35.625 23.37 35.815C23.37 36.005 23.22 36.155 23.03 36.155V36.145Z" fill="black"/>
<path d="M23.0299 36.145C22.8399 36.145 22.6899 35.995 22.6899 35.805C22.6899 35.615 22.8399 35.465 23.0299 35.465C27.2899 35.465 27.7799 33.805 27.7799 33.785C27.8299 33.605 28.0099 33.495 28.1799 33.545C28.3599 33.585 28.4699 33.765 28.4299 33.945C28.4099 34.035 27.8899 36.145 23.0199 36.145H23.0299Z" fill="black"/>
<path d="M29.44 32.045C29.44 32.425 28.91 32.735 28.26 32.735C27.61 32.735 27.08 32.425 27.08 32.045C27.08 31.665 27.61 31.355 28.26 31.355C28.91 31.355 29.44 31.665 29.44 32.045Z" fill="#FF9FAA"/>
<path d="M18.5599 32.045C18.5599 32.425 18.0299 32.735 17.3799 32.735C16.7299 32.735 16.2 32.425 16.2 32.045C16.2 31.665 16.7299 31.355 17.3799 31.355C18.0299 31.355 18.5599 31.665 18.5599 32.045Z" fill="#FF9FAA"/>
<path d="M23.9 24.405C23.9 24.405 23.85 24.405 23.83 24.405C23.24 24.385 22.28 24.255 21.7 23.735C21.24 24.245 20.5 24.445 19.88 24.375C19.03 24.275 18.32 23.765 17.85 23.385C17.71 23.265 17.68 23.055 17.8 22.915C17.92 22.775 18.13 22.745 18.27 22.865C18.67 23.185 19.27 23.625 19.95 23.705C20.46 23.765 21.13 23.545 21.35 23.035C21.4 22.915 21.52 22.835 21.65 22.835C21.79 22.825 21.9 22.895 21.96 23.015C22.18 23.425 22.88 23.695 23.85 23.735C24.36 23.755 24.77 23.405 25.23 22.995L25.36 22.875C25.46 22.785 25.6 22.765 25.72 22.825C25.84 22.885 25.92 23.005 25.91 23.135C25.91 23.275 26.06 23.525 27.08 23.615C27.78 23.675 28.64 23.675 29.12 23.105C29.24 22.965 29.45 22.945 29.59 23.065C29.73 23.185 29.75 23.395 29.63 23.535C28.94 24.345 27.81 24.345 27.02 24.275C26.23 24.205 25.7 24.015 25.43 23.695C25 24.065 24.52 24.405 23.89 24.405H23.9Z" fill="black"/>
<path d="M0.610031 8.785C-0.529969 11.925 3.08752e-05 15.515 1.56003 18.465C2.27003 19.815 3.20003 21.065 4.39003 22.005C6.16003 23.415 8.53003 24.075 10.76 23.715C12.99 23.355 15.05 21.935 16.11 19.935C17.3 17.675 17.23 14.865 17.8 12.435C18.32 10.205 17.53 6.895 15.85 5.275C14.32 3.795 12.08 3.055 9.97003 3.045C7.96003 3.035 5.31003 3.445 3.67003 4.665C2.28003 5.705 1.20003 7.145 0.610031 8.775V8.785Z" fill="#C2E696"/>
<path d="M5.23 14.915C5.23 15.295 4.7 15.605 4.05 15.605C3.4 15.605 2.87 15.295 2.87 14.915C2.87 14.535 3.4 14.225 4.05 14.225C4.7 14.225 5.23 14.535 5.23 14.915Z" fill="#FF9FAA"/>
<path d="M17.11 14.915C17.11 15.295 16.58 15.605 15.93 15.605C15.28 15.605 14.75 15.295 14.75 14.915C14.75 14.535 15.28 14.225 15.93 14.225C16.58 14.225 17.11 14.535 17.11 14.915Z" fill="#FF9FAA"/>
<path d="M12.15 7.475C11.7 7.475 11.23 7.455 10.78 7.275C10.69 7.235 10.6 7.195 10.52 7.145C10.16 7.325 9.78002 7.375 9.48002 7.395C8.66002 7.455 7.97002 7.315 7.44002 6.975C6.74002 6.535 6.37002 5.725 6.54002 5.005C6.58002 4.825 6.76002 4.705 6.94002 4.755C7.12002 4.795 7.23002 4.975 7.19002 5.155C7.07002 5.645 7.41002 6.155 7.80002 6.405C8.20002 6.665 8.75002 6.765 9.43002 6.715C9.65002 6.695 9.83002 6.675 9.98002 6.625C9.86002 6.435 9.78002 6.235 9.76002 6.015C9.73002 5.675 9.87002 5.235 10.26 5.085C10.49 4.995 10.75 5.045 10.96 5.205C11.22 5.405 11.36 5.755 11.32 6.075C11.29 6.285 11.21 6.485 11.08 6.665C11.42 6.795 11.82 6.805 12.22 6.795C12.74 6.795 13.31 6.745 13.59 6.395C13.71 6.255 13.92 6.225 14.06 6.345C14.21 6.465 14.23 6.675 14.11 6.815C13.66 7.385 12.9 7.455 12.22 7.465H12.15V7.475ZM10.54 5.745C10.46 5.745 10.42 5.845 10.43 5.965C10.44 6.075 10.49 6.185 10.55 6.275C10.61 6.195 10.65 6.095 10.66 6.005C10.67 5.915 10.62 5.805 10.55 5.745H10.54Z" fill="black"/>
<path d="M13.43 14.715C12.05 14.715 10.92 13.595 10.92 12.205C10.92 10.815 12.04 9.695 13.43 9.695C14.82 9.695 15.94 10.815 15.94 12.205C15.94 13.595 14.82 14.715 13.43 14.715ZM13.43 10.375C12.42 10.375 11.59 11.195 11.59 12.215C11.59 13.235 12.41 14.055 13.43 14.055C14.45 14.055 15.27 13.235 15.27 12.215C15.27 11.195 14.45 10.375 13.43 10.375Z" fill="black"/>
<path d="M6.76009 14.875C5.29009 14.875 4.09009 13.675 4.09009 12.205C4.09009 10.735 5.29009 9.535 6.76009 9.535C8.23009 9.535 9.43009 10.735 9.43009 12.205C9.43009 13.675 8.23009 14.875 6.76009 14.875ZM6.76009 10.205C5.66009 10.205 4.76009 11.105 4.76009 12.205C4.76009 13.305 5.66009 14.205 6.76009 14.205C7.86009 14.205 8.76009 13.305 8.76009 12.205C8.76009 11.105 7.86009 10.205 6.76009 10.205Z" fill="black"/>
<path d="M10.98 12.485L9.21 12.455C9.02 12.455 8.88 12.295 8.88 12.115C8.88 11.935 9.03001 11.785 9.22001 11.785L10.99 11.815C11.18 11.815 11.32 11.975 11.32 12.155C11.32 12.335 11.17 12.485 10.98 12.485Z" fill="black"/>
<path d="M12.92 13.155C13.2072 13.155 13.44 12.9222 13.44 12.635C13.44 12.3478 13.2072 12.115 12.92 12.115C12.6328 12.115 12.4 12.3478 12.4 12.635C12.4 12.9222 12.6328 13.155 12.92 13.155Z" fill="black"/>
<path d="M7.55003 12.985C7.83722 12.985 8.07003 12.7522 8.07003 12.465C8.07003 12.1778 7.83722 11.945 7.55003 11.945C7.26284 11.945 7.03003 12.1778 7.03003 12.465C7.03003 12.7522 7.26284 12.985 7.55003 12.985Z" fill="black"/>
<path d="M9.99007 17.025C9.31007 17.025 8.73007 16.725 8.41007 16.475C8.27007 16.355 8.24007 16.145 8.36007 16.005C8.48007 15.865 8.69007 15.835 8.83007 15.955C8.83007 15.955 9.96007 16.845 11.0401 15.955C11.1801 15.835 11.4001 15.855 11.5101 16.005C11.6301 16.145 11.6101 16.355 11.4601 16.475C10.9601 16.885 10.4501 17.025 9.98007 17.025H9.99007Z" fill="black"/>
</g>
<defs>
<clipPath id="clip0_5_862">
<rect width="214.19" height="48.91" fill="white" transform="translate(0 0.545)"/>
</clipPath>
</defs>
</svg>
