<svg width="80" height="100" viewBox="0 0 80 100" fill="none" xmlns="http://www.w3.org/2000/svg">
<g id="characters">
<g id="character-2">
<path d="M38.3129 58.9845C36.895 67.505 40.8309 76.1964 39.5352 84.7169C39.193 86.9141 38.5329 89.087 38.8507 91.2842C39.2663 94.0186 41.222 96.3135 43.6178 97.6807C46.0136 99.0478 48.8005 99.585 51.5385 99.8535C53.7143 100.049 55.9389 100.098 58.1147 99.6826C63.5662 98.6816 68.2355 94.9463 71.4869 90.4541C74.7383 85.962 76.743 80.713 78.6253 75.4884C79.1876 73.9259 79.7499 72.339 79.8966 70.6788C80.6544 62.1095 77.2075 52.6125 70.5824 46.9973C68.7245 45.4348 66.671 44.1409 64.593 42.8469C53.8609 36.1331 40.1953 47.9494 38.3373 58.9601L38.3129 58.9845Z" fill="#ADCAE2"/>
<path d="M44.669 60.0588C44.3757 60.0588 44.1067 59.9123 43.9601 59.6437C43.74 59.2531 43.8623 58.7404 44.2534 58.5207C45.818 57.6174 49.0694 58.008 49.4361 58.0568C49.8761 58.1057 50.1939 58.5207 50.1451 58.9846C50.0962 59.424 49.6806 59.7414 49.2161 59.6926C48.0426 59.5461 45.8913 59.4728 45.0846 59.9367C44.9624 60.0099 44.8157 60.0588 44.669 60.0588Z" fill="black"/>
<path d="M68.1133 60.0588C67.9911 60.0588 67.8688 60.0343 67.7466 59.9611C65.9865 59.0578 63.1995 59.7902 63.1751 59.7902C62.7351 59.9123 62.295 59.6437 62.1728 59.2043C62.0506 58.7648 62.3195 58.3254 62.7595 58.2033C62.9062 58.1545 66.182 57.3 68.5045 58.4963C68.8956 58.716 69.0667 59.2043 68.8467 59.5949C68.7 59.8879 68.4067 60.0344 68.1133 60.0344V60.0588Z" fill="black"/>
<path d="M48.1893 67.1144C49.0264 67.1144 49.705 66.1416 49.705 64.9416C49.705 63.7415 49.0264 62.7687 48.1893 62.7687C47.3522 62.7687 46.6736 63.7415 46.6736 64.9416C46.6736 66.1416 47.3522 67.1144 48.1893 67.1144Z" fill="black"/>
<path d="M64.9597 67.1144C65.7968 67.1144 66.4754 66.1416 66.4754 64.9416C66.4754 63.7415 65.7968 62.7687 64.9597 62.7687C64.1226 62.7687 63.444 63.7415 63.444 64.9416C63.444 66.1416 64.1226 67.1144 64.9597 67.1144Z" fill="black"/>
<path d="M57.3568 74.4386C57.3568 74.4386 57.3079 74.4386 57.2835 74.4386C56.2078 74.3409 55.4255 73.9747 54.9121 73.2911C54.2521 72.3878 54.4477 71.338 54.4721 71.2159C54.5699 70.7765 55.0099 70.5079 55.45 70.5812C55.89 70.6788 56.1589 71.1183 56.0856 71.5333C56.0856 71.5333 56.0122 71.9972 56.2567 72.2902C56.5012 72.632 57.039 72.7296 57.4301 72.754C57.8702 72.8028 58.2124 73.1935 58.188 73.6329C58.1635 74.0724 57.7968 74.3898 57.3812 74.3898L57.3568 74.4386Z" fill="black"/>
<path d="M56.3056 80.8106C44.4001 80.8106 43.1289 75.6593 43.08 75.4396C42.9822 75.0001 43.2511 74.5607 43.7156 74.463C44.1556 74.3653 44.5957 74.6339 44.6935 75.0733C44.7179 75.171 45.9891 79.1749 56.3056 79.1749C56.7701 79.1749 57.1368 79.5411 57.1368 80.005C57.1368 80.4688 56.7701 80.835 56.3056 80.835V80.8106Z" fill="black"/>
<path d="M56.3056 80.8106C55.8411 80.8106 55.4744 80.4444 55.4744 79.9806C55.4744 79.5167 55.8411 79.1505 56.3056 79.1505C66.7199 79.1505 67.9177 75.0978 67.9177 75.0489C68.04 74.6095 68.48 74.3409 68.8956 74.463C69.3356 74.5607 69.6046 75.0001 69.5068 75.4396C69.4579 75.6593 68.1867 80.8106 56.2812 80.8106L56.3056 80.8106Z" fill="black"/>
<path d="M71.9759 70.8009C71.9759 71.7286 70.6802 72.4855 69.0912 72.4855C67.5021 72.4855 66.2065 71.7286 66.2065 70.8009C66.2065 69.8732 67.5021 69.1163 69.0912 69.1163C70.6802 69.1163 71.9759 69.8732 71.9759 70.8009Z" fill="#FF9FAA"/>
<path d="M45.378 70.8009C45.378 71.7286 44.0823 72.4855 42.4933 72.4855C40.9042 72.4855 39.6086 71.7286 39.6086 70.8009C39.6086 69.8732 40.9042 69.1163 42.4933 69.1163C44.0823 69.1163 45.378 69.8732 45.378 70.8009Z" fill="#FF9FAA"/>
<path d="M58.4325 52.1486C58.4325 52.1486 58.3102 52.1486 58.2613 52.1486C56.819 52.0998 54.4721 51.7824 53.0542 50.5129C51.9297 51.758 50.1206 52.2463 48.6049 52.0754C46.527 51.8313 44.7913 50.5862 43.6423 49.6584C43.3 49.3655 43.2267 48.8528 43.52 48.511C43.8134 48.1692 44.3268 48.0959 44.669 48.3889C45.6469 49.1701 47.1137 50.2444 48.776 50.4397C50.0228 50.5862 51.6607 50.049 52.1986 48.8039C52.3208 48.511 52.6142 48.3157 52.932 48.3157C53.2742 48.2912 53.5431 48.4621 53.6898 48.7551C54.2276 49.7561 55.9389 50.4153 58.3102 50.5129C59.557 50.5617 60.5593 49.7073 61.6839 48.7063L62.0017 48.4133C62.2461 48.1936 62.5884 48.1448 62.8817 48.2912C63.1751 48.4377 63.3707 48.7307 63.3462 49.0481C63.3462 49.3899 63.7129 50.0002 66.2065 50.2199C67.9177 50.3664 70.0201 50.3664 71.1936 48.9748C71.4869 48.633 72.0003 48.5842 72.3426 48.8772C72.6848 49.1701 72.7337 49.6828 72.4404 50.0246C70.7535 52.0022 67.9911 52.0022 66.0598 51.8313C64.1285 51.6604 62.8328 51.1965 62.1728 50.4153C61.1216 51.3186 59.9481 52.1486 58.408 52.1486H58.4325Z" fill="black"/>
</g>
<g id="character-1">
<path d="M1.49609 14.014C-1.29082 21.68 0.00485021 30.4446 3.81852 37.6468C5.55423 40.9426 7.82776 43.9944 10.7369 46.2893C15.064 49.7317 20.8578 51.343 26.3094 50.4641C31.761 49.5852 36.797 46.1184 39.3883 41.2356C42.2975 35.718 42.1263 28.8577 43.5198 22.9251C44.791 17.4808 42.8597 9.39981 38.7527 5.44475C35.0124 1.83148 29.5363 0.0248483 24.3781 0.00043437C19.4643 -0.0239796 12.986 0.976992 8.97675 3.95549C5.57867 6.49455 2.93844 10.0102 1.49609 13.9896V14.014Z" fill="#C2E696"/>
<path d="M12.7904 28.9798C12.7904 29.9075 11.4948 30.6644 9.90572 30.6644C8.31669 30.6644 7.02102 29.9075 7.02102 28.9798C7.02102 28.0521 8.31669 27.2952 9.90572 27.2952C11.4948 27.2952 12.7904 28.0521 12.7904 28.9798Z" fill="#FF9FAA"/>
<path d="M41.833 28.9798C41.833 29.9075 40.5373 30.6644 38.9483 30.6644C37.3593 30.6644 36.0636 29.9075 36.0636 28.9798C36.0636 28.0521 37.3593 27.2952 38.9483 27.2952C40.5373 27.2952 41.833 28.0521 41.833 28.9798Z" fill="#FF9FAA"/>
<path d="M29.7075 10.8158C28.6074 10.8158 27.4584 10.767 26.3583 10.3275C26.1383 10.2299 25.9182 10.1322 25.7227 10.0102C24.8426 10.4496 23.9136 10.5717 23.1802 10.6205C21.1756 10.767 19.4888 10.4252 18.1931 9.59512C16.4819 8.5209 15.5773 6.54337 15.9929 4.78557C16.0907 4.34612 16.5308 4.05315 16.9708 4.17522C17.4108 4.27288 17.6797 4.71233 17.582 5.15178C17.2886 6.34806 18.1198 7.59317 19.0732 8.20352C20.0511 8.83829 21.3956 9.08242 23.058 8.96036C23.5958 8.91153 24.0359 8.8627 24.4026 8.74063C24.1092 8.27676 23.9136 7.78848 23.8647 7.25138C23.7914 6.4213 24.1336 5.34709 25.0871 4.98088C25.6493 4.76115 26.2849 4.88322 26.7983 5.27385C27.4339 5.76213 27.7762 6.61662 27.6784 7.39786C27.6051 7.91056 27.4095 8.39883 27.0917 8.83828C27.9229 9.15567 28.9007 9.18008 29.8786 9.15567C31.1498 9.15567 32.5433 9.0336 33.2278 8.17911C33.5211 7.83731 34.0345 7.76407 34.3768 8.05704C34.7435 8.35001 34.7924 8.8627 34.499 9.20449C33.3989 10.5961 31.541 10.767 29.8786 10.7914H29.7075V10.8158ZM25.7716 6.5922C25.576 6.5922 25.4782 6.83634 25.5027 7.12931C25.5271 7.39786 25.6493 7.66642 25.796 7.88614C25.9427 7.69083 26.0405 7.44669 26.0649 7.22696C26.0894 7.00724 25.9671 6.73868 25.796 6.5922H25.7716Z" fill="black"/>
<path d="M32.8366 28.4915C29.463 28.4915 26.7005 25.7572 26.7005 22.3636C26.7005 18.9701 29.4386 16.2357 32.8366 16.2357C36.2347 16.2357 38.9727 18.9701 38.9727 22.3636C38.9727 25.7572 36.2347 28.4915 32.8366 28.4915ZM32.8366 17.8959C30.3675 17.8959 28.3385 19.8978 28.3385 22.388C28.3385 24.8783 30.3431 26.8802 32.8366 26.8802C35.3302 26.8802 37.3348 24.8783 37.3348 22.388C37.3348 19.8978 35.3302 17.8959 32.8366 17.8959Z" fill="black"/>
<path d="M16.5308 28.8821C12.9371 28.8821 10.0035 25.9525 10.0035 22.3636C10.0035 18.7748 12.9371 15.8451 16.5308 15.8451C20.1244 15.8451 23.058 18.7748 23.058 22.3636C23.058 25.9525 20.1244 28.8821 16.5308 28.8821ZM16.5308 17.4808C13.8416 17.4808 11.6414 19.6781 11.6414 22.3636C11.6414 25.0492 13.8416 27.2464 16.5308 27.2464C19.2199 27.2464 21.4201 25.0492 21.4201 22.3636C21.4201 19.6781 19.2199 17.4808 16.5308 17.4808Z" fill="black"/>
<path d="M26.8472 23.0472L22.5202 22.974C22.0557 22.974 21.7134 22.5833 21.7134 22.1439C21.7134 21.7044 22.0801 21.3382 22.5446 21.3382L26.8717 21.4115C27.3361 21.4115 27.6784 21.8021 27.6784 22.2415C27.6784 22.681 27.3117 23.0472 26.8472 23.0472Z" fill="black"/>
<path d="M31.5899 24.6829C32.2919 24.6829 32.8611 24.1146 32.8611 23.4134C32.8611 22.7123 32.2919 22.1439 31.5899 22.1439C30.8878 22.1439 30.3186 22.7123 30.3186 23.4134C30.3186 24.1146 30.8878 24.6829 31.5899 24.6829Z" fill="black"/>
<path d="M18.462 24.2679C19.1641 24.2679 19.7333 23.6995 19.7333 22.9984C19.7333 22.2972 19.1641 21.7289 18.462 21.7289C17.76 21.7289 17.1908 22.2972 17.1908 22.9984C17.1908 23.6995 17.76 24.2679 18.462 24.2679Z" fill="black"/>
<path d="M24.427 34.1311C22.7646 34.1311 21.3467 33.3987 20.5644 32.7884C20.2222 32.4954 20.1488 31.9827 20.4422 31.6409C20.7356 31.2991 21.2489 31.2259 21.5912 31.5188C21.5912 31.5188 24.3537 33.6917 26.9939 31.5188C27.3361 31.2259 27.874 31.2747 28.1429 31.6409C28.4362 31.9827 28.3874 32.4954 28.0207 32.7884C26.7983 33.7893 25.5515 34.1311 24.4026 34.1311H24.427Z" fill="black"/>
</g>
</g>
</svg>
