<svg width="49" height="48" viewBox="0 0 49 48" fill="none" xmlns="http://www.w3.org/2000/svg">
<g id="waving_hand">
<mask id="mask0_8_922" style="mask-type:alpha" maskUnits="userSpaceOnUse" x="0" y="0" width="49" height="48">
<rect id="Bounding box" x="0.5" width="48" height="48" fill="#D9D9D9"/>
</mask>
<g mask="url(#mask0_8_922)">
<path id="waving_hand_2" d="M33.2692 43.5385C33.0391 43.5385 32.847 43.4654 32.6928 43.3191C32.5386 43.1729 32.4615 42.9876 32.4615 42.7633C32.4615 42.5391 32.5389 42.3558 32.6937 42.2134C32.8485 42.0711 33.0404 42 33.2692 42C35.8487 41.9744 38.0256 41.066 39.8 39.275C41.5744 37.484 42.4744 35.3154 42.5 32.7692C42.5 32.5273 42.5732 32.3322 42.7196 32.1839C42.866 32.0357 43.043 31.9615 43.2504 31.9615C43.4578 31.9615 43.641 32.036 43.8 32.1848C43.959 32.3337 44.0385 32.5285 44.0385 32.7692C44.0385 35.7641 42.9961 38.3077 40.9113 40.4C38.8265 42.4923 36.2791 43.5385 33.2692 43.5385ZM5.7294 16.05C5.49516 16.05 5.30863 15.9766 5.1698 15.8298C5.03096 15.683 4.96155 15.5 4.96155 15.2807C4.96155 12.2908 6.01165 9.74015 8.11185 7.62869C10.2121 5.51722 12.7517 4.46149 15.7307 4.46149C15.9572 4.46149 16.1504 4.54165 16.3102 4.70199C16.4701 4.86232 16.55 5.04442 16.55 5.24829C16.55 5.45215 16.4759 5.62841 16.3276 5.77704C16.1794 5.92567 15.9843 5.99999 15.7423 5.99999C13.1859 6.02562 11.0129 6.93395 9.2231 8.72499C7.43333 10.516 6.52563 12.6846 6.5 15.2307C6.5 15.4629 6.42615 15.6574 6.27845 15.8144C6.13075 15.9715 5.94773 16.05 5.7294 16.05ZM36.6 10.9708C36.7718 11.1463 36.8577 11.3296 36.8577 11.5208C36.8577 11.7121 36.7718 11.8936 36.6 12.0654L24.5807 24.0846C24.4346 24.2308 24.2586 24.3001 24.0527 24.2926C23.8468 24.2851 23.669 24.1991 23.5192 24.0346C23.3474 23.9208 23.2679 23.7545 23.2807 23.5357C23.2936 23.317 23.3731 23.1295 23.5192 22.973L35.5 10.9653C35.6765 10.7936 35.861 10.7077 36.0535 10.7077C36.246 10.7077 36.4282 10.7954 36.6 10.9708ZM39.9384 17.0959C40.1102 17.2727 40.1961 17.4586 40.1961 17.6536C40.1961 17.8486 40.1102 18.032 39.9384 18.2038L29.3192 28.7846C29.1731 28.9308 28.9897 29.0083 28.7692 29.0173C28.5487 29.0263 28.3654 28.9458 28.2192 28.7759C28.0731 28.6279 28.0128 28.4461 28.0384 28.2307C28.0641 28.0154 28.15 27.8295 28.2961 27.673L38.8654 17.1038C39.0138 16.9577 39.1932 16.8846 39.4036 16.8846C39.614 16.8846 39.7923 16.955 39.9384 17.0959ZM11.5192 36.8C8.84486 34.1385 7.51218 30.9474 7.52115 27.2269C7.53011 23.5064 8.8846 20.2961 11.5846 17.5961L16.3654 12.8153C16.6444 12.541 16.9699 12.4038 17.3419 12.4038C17.714 12.4038 18.0372 12.541 18.3115 12.8153L18.9384 13.4423C19.3897 13.8936 19.734 14.4051 19.9711 14.9769C20.2083 15.5487 20.3179 16.1192 20.3 16.6884L27.9115 9.06534C28.0599 8.9192 28.2367 8.84614 28.442 8.84614C28.6473 8.84614 28.841 8.92009 29.0231 9.06799C29.1692 9.25179 29.2423 9.44602 29.2423 9.65069C29.2423 9.85535 29.1692 10.0308 29.0231 10.1769L19.6423 19.5577L16.9692 22.2692L18.1154 23.4538C19.3103 24.6487 19.9083 26.1058 19.9096 27.825C19.9109 29.5442 19.2998 31.0156 18.0762 32.2392L17.2974 33.018C17.153 33.1624 16.9731 33.2327 16.7577 33.2288C16.5423 33.225 16.3564 33.1437 16.2 32.9849C16.0795 32.8155 16.0192 32.6278 16.0192 32.4219C16.0192 32.216 16.0795 32.0433 16.2 31.9038L17.0192 31.0846C17.9295 30.1744 18.3801 29.084 18.3711 27.8134C18.3622 26.5429 17.9064 25.4436 17.0038 24.5154L15.7307 23.2423C15.4564 22.9606 15.3192 22.6261 15.3192 22.2387C15.3192 21.8514 15.4525 21.525 15.719 21.2597L17.9538 19.1115C18.5461 18.4936 18.8423 17.7404 18.8423 16.8519C18.8423 15.9635 18.5461 15.2103 17.9538 14.5923L17.3769 14.0154L12.6846 18.6692C10.3026 21.0332 9.10065 23.8684 9.07885 27.1749C9.05705 30.4814 10.2243 33.3192 12.5807 35.6884C14.9705 38.091 17.8372 39.3045 21.1807 39.3288C24.5243 39.3532 27.3872 38.1744 29.7692 35.7923L40.4731 25.0884C40.6215 24.9423 40.7983 24.8692 41.0036 24.8692C41.2089 24.8692 41.4026 24.9396 41.5846 25.0805C41.7308 25.2573 41.8038 25.4432 41.8038 25.6382C41.8038 25.8332 41.7308 26.0166 41.5846 26.1884L30.8453 36.8523C28.1689 39.5533 24.9538 40.8917 21.2 40.8673C17.4462 40.843 14.2192 39.4872 11.5192 36.8Z" fill="black"/>
</g>
</g>
</svg>
