<svg width="49" height="48" viewBox="0 0 49 48" fill="none" xmlns="http://www.w3.org/2000/svg">
<g id="pie_chart">
<mask id="mask0_8_917" style="mask-type:alpha" maskUnits="userSpaceOnUse" x="0" y="0" width="49" height="48">
<rect id="Bounding box" x="0.5" width="48" height="48" fill="#D9D9D9"/>
</mask>
<g mask="url(#mask0_8_917)">
<path id="pie_chart_2" d="M25.2693 23.2307H40.95C40.7628 18.9846 39.166 15.3378 36.1596 12.2904C33.1532 9.24297 29.5231 7.66283 25.2693 7.55V23.2307ZM23.7307 40.45V7.55C19.3641 7.71153 15.657 9.38717 12.6096 12.5769C9.56217 15.7667 8.03845 19.5744 8.03845 24C8.03845 28.4256 9.56217 32.2333 12.6096 35.4231C15.657 38.6128 19.3641 40.2885 23.7307 40.45ZM25.2693 40.45C29.5231 40.3372 33.1468 38.757 36.1404 35.7096C39.134 32.6622 40.7372 29.0154 40.95 24.7693H25.2693V40.45ZM24.5067 42C22.0176 42 19.6774 41.5277 17.4862 40.583C15.295 39.6384 13.3889 38.3564 11.7679 36.737C10.147 35.1176 8.86383 33.2133 7.9183 31.0241C6.97277 28.8349 6.5 26.4958 6.5 24.0067C6.5 21.5176 6.97232 19.1774 7.91695 16.9862C8.86162 14.795 10.1437 12.8889 11.7631 11.268C13.3825 9.64705 15.2867 8.36383 17.4759 7.4183C19.6651 6.47277 22.0042 6 24.4933 6C26.9824 6 29.3218 6.47372 31.5116 7.42115C33.7013 8.36858 35.6064 9.65255 37.2269 11.273C38.8475 12.8936 40.1314 14.7972 41.0789 16.9838C42.0263 19.1704 42.5 21.5132 42.5 24.0122C42.5 26.4887 42.0277 28.82 41.083 31.0061C40.1384 33.1922 38.8564 35.0994 37.237 36.7276C35.6176 38.3559 33.7133 39.6417 31.5241 40.585C29.3349 41.5283 26.9958 42 24.5067 42Z" fill="black"/>
</g>
</g>
</svg>
