<svg width="49" height="48" viewBox="0 0 49 48" fill="none" xmlns="http://www.w3.org/2000/svg">
<g id="explore">
<mask id="mask0_8_907" style="mask-type:alpha" maskUnits="userSpaceOnUse" x="0" y="0" width="49" height="48">
<rect id="Bounding box" x="0.5" width="48" height="48" fill="#D9D9D9"/>
</mask>
<g mask="url(#mask0_8_907)">
<path id="explore_2" d="M24.5 26C23.9333 26 23.4583 25.8083 23.075 25.425C22.6917 25.0417 22.5 24.5667 22.5 24C22.5 23.4333 22.6917 22.9583 23.075 22.575C23.4583 22.1917 23.9333 22 24.5 22C25.0667 22 25.5417 22.1917 25.925 22.575C26.3083 22.9583 26.5 23.4333 26.5 24C26.5 24.5667 26.3083 25.0417 25.925 25.425C25.5417 25.8083 25.0667 26 24.5 26ZM24.5067 42C22.0253 42 19.6954 41.5277 17.517 40.583C15.3386 39.6384 13.4305 38.348 11.7929 36.712C10.1554 35.0759 8.86383 33.1697 7.9183 30.9933C6.97277 28.8169 6.5 26.4881 6.5 24.0067C6.5 21.5176 6.97232 19.1774 7.91695 16.9862C8.86162 14.795 10.152 12.8889 11.7881 11.268C13.4241 9.64705 15.3303 8.36383 17.5067 7.4183C19.6831 6.47277 22.0119 6 24.4933 6C26.9824 6 29.3226 6.47232 31.5138 7.41695C33.705 8.36162 35.6111 9.64365 37.232 11.263C38.853 12.8824 40.1362 14.7867 41.0817 16.9759C42.0272 19.1651 42.5 21.5042 42.5 23.9933C42.5 26.4747 42.0277 28.8046 41.083 30.983C40.1384 33.1614 38.8564 35.0695 37.237 36.7071C35.6176 38.3446 33.7133 39.6362 31.5241 40.5817C29.3349 41.5272 26.9958 42 24.5067 42ZM24.5 40.4616C29.0795 40.4616 32.968 38.8609 36.1654 35.6596C39.3628 32.4583 40.9616 28.5718 40.9616 24C40.9616 19.4205 39.3628 15.532 36.1654 12.3346C32.968 9.13717 29.0795 7.53845 24.5 7.53845C19.9282 7.53845 16.0417 9.13717 12.8404 12.3346C9.6391 15.532 8.03845 19.4205 8.03845 24C8.03845 28.5718 9.6391 32.4583 12.8404 35.6596C16.0417 38.8609 19.9282 40.4616 24.5 40.4616ZM17.1885 32.35L26.9307 26.9885C27.0462 26.9475 27.1494 26.8814 27.2404 26.7904C27.3314 26.6994 27.4103 26.5833 27.4769 26.4423L32.8384 16.7C33.0308 16.3667 32.9879 16.0686 32.7097 15.8057C32.4314 15.5429 32.1282 15.4949 31.8 15.6616L22.0577 21.0231C21.9167 21.0897 21.8006 21.1686 21.7096 21.2596C21.6186 21.3506 21.5526 21.4539 21.5115 21.5693L16.15 31.3116C15.9577 31.6705 15.9929 31.9814 16.2557 32.2443C16.5186 32.5071 16.8295 32.5423 17.1885 32.35Z" fill="black"/>
</g>
</g>
</svg>
