<svg width="49" height="48" viewBox="0 0 49 48" fill="none" xmlns="http://www.w3.org/2000/svg">
<g id="beenhere">
<mask id="mask0_8_902" style="mask-type:alpha" maskUnits="userSpaceOnUse" x="0" y="0" width="49" height="48">
<rect id="Bounding box" x="0.5" width="48" height="48" fill="#D9D9D9"/>
</mask>
<g mask="url(#mask0_8_902)">
<path id="beenhere_2" d="M24.4952 42.827C24.1907 42.827 23.902 42.7833 23.629 42.6961C23.356 42.609 23.0977 42.4782 22.8539 42.3039L11.623 33.8615C11.248 33.6122 10.9671 33.2942 10.7803 32.9077C10.5934 32.5212 10.5 32.1032 10.5 31.6539V8.7692C10.5 8.00063 10.7694 7.34695 11.3081 6.80815C11.8469 6.26938 12.5006 6 13.2692 6H35.7308C36.4994 6 37.153 6.26938 37.6918 6.80815C38.2306 7.34695 38.5 8.00063 38.5 8.7692V31.6539C38.5 32.1032 38.4066 32.5212 38.2197 32.9077C38.0329 33.2942 37.752 33.6122 37.377 33.8615L26.1461 42.3039C25.9003 42.4782 25.6399 42.609 25.3647 42.6961C25.0895 42.7833 24.7997 42.827 24.4952 42.827ZM23.7693 41.0193C23.9744 41.1987 24.218 41.2884 24.5 41.2884C24.782 41.2884 25.0256 41.1987 25.2308 41.0193L36.4616 32.4807C36.6154 32.3782 36.7372 32.2372 36.827 32.0577C36.9167 31.8782 36.9616 31.6859 36.9616 31.4807V8.7692C36.9616 8.46153 36.8334 8.17948 36.577 7.92305C36.3205 7.66665 36.0385 7.53845 35.7308 7.53845H13.2692C12.9615 7.53845 12.6795 7.66665 12.423 7.92305C12.1666 8.17948 12.0384 8.46153 12.0384 8.7692V31.4807C12.0384 31.6859 12.0833 31.8782 12.173 32.0577C12.2628 32.2372 12.3846 32.3782 12.5385 32.4807L23.7693 41.0193ZM22.3885 26.4538L18.2962 22.3616C18.15 22.241 17.9731 22.1744 17.7654 22.1616C17.5577 22.1487 17.368 22.2088 17.1962 22.3419C17.05 22.5268 16.9769 22.7167 16.9769 22.9116C16.9769 23.1064 17.0628 23.2897 17.2346 23.4615L21.4269 27.6423C21.7059 27.9167 22.0315 28.0539 22.4035 28.0539C22.7755 28.0539 23.0987 27.9167 23.3731 27.6423L31.7654 19.25C31.9115 19.0992 31.9891 18.9211 31.9981 18.7158C32.0071 18.5104 31.9266 18.3218 31.7567 18.15C31.583 17.9782 31.4013 17.8987 31.2116 17.9116C31.0218 17.9244 30.8359 18.0038 30.6539 18.15L22.3885 26.4538Z" fill="black"/>
</g>
</g>
</svg>
