<svg width="49" height="48" viewBox="0 0 49 48" fill="none" xmlns="http://www.w3.org/2000/svg">
    <g id="domain_verification">
        <mask id="mask0_8_912" style="mask-type:alpha" maskUnits="userSpaceOnUse" x="0" y="0"
            width="49" height="48">

            <rect id="Bounding box" x="0.5" width="48" height="48" fill="#D9D9D9" />
        </mask>
        <g mask="url(#mask0_8_912)">
            <path id="domain_verification_2"
                d="M9.2692 38C8.50063 38 7.84695 37.7306 7.30815 37.1919C6.76938 36.6531 6.5 35.9994 6.5 35.2308V12.7692C6.5 12.0006 6.76938 11.347 7.30815 10.8082C7.84695 10.2694 8.50063 10 9.2692 10H39.7308C40.4994 10 41.153 10.2694 41.6918 10.8082C42.2306 11.347 42.5 12.0006 42.5 12.7692V35.2308C42.5 35.9994 42.2306 36.6531 41.6918 37.1919C41.153 37.7306 40.4994 38 39.7308 38H9.2692ZM9.2692 36.4616H39.7308C40.0385 36.4616 40.3205 36.3333 40.577 36.077C40.8334 35.8205 40.9616 35.5385 40.9616 35.2308V15.6231H8.03845V35.2308C8.03845 35.5385 8.16665 35.8205 8.42305 36.077C8.67948 36.3333 8.96153 36.4616 9.2692 36.4616ZM22.4 29.0769L30.3154 21.1616C30.4681 21.0154 30.6506 20.9359 30.8626 20.923C31.0747 20.9102 31.2666 20.9924 31.4384 21.1694C31.6103 21.3464 31.6961 21.5336 31.6961 21.7309C31.6961 21.9283 31.6103 22.1128 31.4384 22.2846L23.3731 30.35C23.0941 30.6244 22.7685 30.7615 22.3965 30.7615C22.0245 30.7615 21.7013 30.6244 21.4269 30.35L17.5615 26.4846C17.4154 26.3319 17.3359 26.1495 17.3231 25.9374C17.3103 25.7253 17.3924 25.5333 17.5694 25.3615C17.7464 25.1897 17.9336 25.1039 18.1309 25.1039C18.3283 25.1039 18.5128 25.1897 18.6846 25.3615L22.4 29.0769ZM9.2692 36.4616H8.03845V11.5384H9.2692C8.96153 11.5384 8.67948 11.6666 8.42305 11.923C8.16665 12.1795 8.03845 12.4615 8.03845 12.7692V35.2308C8.03845 35.5385 8.16665 35.8205 8.42305 36.077C8.67948 36.3333 8.96153 36.4616 9.2692 36.4616Z"
                fill="black"><text>dd</text></path>
        </g>
    </g>
</svg>