<svg width="49" height="48" viewBox="0 0 49 48" fill="none" xmlns="http://www.w3.org/2000/svg">
<g id="mountain_flag">
<mask id="mask0_8_897" style="mask-type:alpha" maskUnits="userSpaceOnUse" x="0" y="0" width="49" height="48">
<rect id="Bounding box" x="0.5" width="48" height="48" fill="#D9D9D9"/>
</mask>
<g mask="url(#mask0_8_897)">
<path id="mountain_flag_2" d="M17.0038 26.7115L20.5615 29.0962L23.8385 27.4577C24.0385 27.3577 24.2506 27.3077 24.475 27.3077C24.6994 27.3077 24.9115 27.3577 25.1115 27.4577L28.4269 29.1462L32.0231 26.7231L29.8269 22.2307C29.7244 22.0256 29.5705 21.8589 29.3654 21.7308C29.1603 21.6026 28.9423 21.5384 28.7115 21.5384H20.2769C20.0461 21.5384 19.8346 21.6026 19.6423 21.7308C19.45 21.8589 19.3026 22.0256 19.2 22.2307L17.0038 26.7115ZM10.1961 40.4616H38.7654L32.6807 28.1539L29.2346 30.4423C29.0146 30.5881 28.7827 30.6746 28.5388 30.7017C28.295 30.7288 28.0654 30.6756 27.85 30.5423L24.5 28.8923L21.1884 30.5039C20.9474 30.6372 20.7083 30.6955 20.4711 30.6789C20.234 30.6622 20.0115 30.5833 19.8038 30.4423L16.2692 28.1038L10.1961 40.4616ZM9.93845 42C9.40638 42 9.00735 41.7859 8.74135 41.3577C8.47532 40.9295 8.46282 40.4782 8.70385 40.0039L17.8077 21.4961C18.0487 21.0474 18.3911 20.6859 18.8349 20.4116C19.2787 20.1372 19.7594 20 20.2769 20H23.7307V7.3846C23.7307 6.98523 23.8617 6.65463 24.1235 6.3928C24.3854 6.13093 24.716 6 25.1154 6H33.4231C33.6685 6 33.8522 6.11025 33.9744 6.33075C34.0966 6.55128 34.1038 6.78205 33.9961 7.02305L33.2539 8.4577C33.2128 8.53203 33.1923 8.63587 33.1923 8.7692C33.1923 8.90253 33.2128 9.00638 33.2539 9.08075L33.9961 10.5154C34.1038 10.7564 34.0966 10.9872 33.9744 11.2077C33.8522 11.4282 33.6685 11.5384 33.4231 11.5384H25.2693V20H28.5731C29.1118 20 29.595 20.1372 30.0228 20.4116C30.4505 20.6859 30.7737 21.0602 30.9923 21.5346L40.2461 40.0039C40.4872 40.4782 40.4747 40.9295 40.2086 41.3577C39.9426 41.7859 39.5436 42 39.0115 42H9.93845Z" fill="black"/>
</g>
</g>
</svg>
