<?xml version="1.0" encoding="UTF-8"?>
<svg id="_레이어_2" data-name="레이어 2" xmlns="http://www.w3.org/2000/svg" viewBox="0 0 107.81 44.04">
  <defs>
    <style>
      .cls-1 {
        fill: #717071;
      }

      .cls-1, .cls-2, .cls-3, .cls-4 {
        stroke-width: 0px;
      }

      .cls-2 {
        fill: #2ca6e0;
      }

      .cls-3 {
        fill: #8dc33e;
      }

      .cls-4 {
        fill: #f29739;
      }
    </style>
  </defs>
  <g id="_레이어_1-2" data-name="레이어 1">
    <g>
      <g>
        <path class="cls-1" d="m29.08,40.24c-.15,0-.3,0-.44,0-.14,0-.28-.01-.39-.03v3.67h-1.64v-9.39h2.57c.44,0,.81.02,1.13.06.32.04.6.1.86.18.61.2,1.07.51,1.4.93.33.43.49.98.49,1.65,0,.45-.08.86-.26,1.22-.18.37-.44.67-.78.92-.34.25-.75.45-1.25.58-.49.13-1.06.2-1.69.2Zm-.83-1.48c.09,0,.2.02.35.03.14,0,.29,0,.45,0,.44,0,.81-.03,1.11-.11.3-.07.53-.18.72-.31.19-.14.31-.3.4-.49.08-.19.12-.39.12-.62,0-.28-.06-.51-.18-.72-.11-.2-.33-.36-.62-.47-.16-.05-.35-.1-.58-.12-.22-.03-.51-.04-.84-.04h-.91v2.83Z"/>
        <path class="cls-1" d="m47.03,41.48h-3.36l-.87,2.39h-1.75l3.55-9.39h1.49l3.54,9.39h-1.74l-.87-2.39Zm-1.69-4.74c-.31.98-.58,1.8-.83,2.46l-.31.84h2.31l-.3-.84c-.25-.67-.52-1.49-.84-2.46h-.03Z"/>
        <path class="cls-1" d="m63.46,41.17c0-.24-.06-.43-.16-.58-.12-.15-.27-.27-.46-.36-.19-.09-.4-.17-.64-.23-.24-.06-.49-.12-.75-.17-.34-.08-.67-.17-.99-.28-.32-.11-.6-.26-.84-.46-.24-.19-.42-.44-.57-.74-.14-.3-.21-.68-.21-1.12,0-.49.08-.93.24-1.29.16-.37.39-.67.67-.92.28-.24.61-.42.99-.54.38-.12.81-.18,1.29-.18s.94.05,1.42.15c.49.09.89.22,1.24.38v1.47c-.46-.19-.9-.33-1.33-.42-.43-.08-.83-.12-1.2-.12-.54,0-.94.1-1.24.3-.28.21-.43.51-.43.92,0,.24.05.44.15.59.09.15.22.28.39.38.16.1.34.18.56.24.22.06.44.12.68.17.37.09.74.18,1.08.29.34.11.65.26.91.46.27.19.48.45.63.77.16.31.23.72.23,1.21s-.08.95-.26,1.31c-.17.37-.43.67-.76.92-.32.24-.71.42-1.18.54-.46.11-.98.17-1.53.17-.48,0-.96-.05-1.43-.15-.47-.1-.86-.24-1.17-.42v-1.46c.44.2.87.35,1.28.44.42.09.85.14,1.29.14.26,0,.52-.02.76-.07.26-.04.47-.12.67-.22.19-.11.36-.26.47-.44.13-.19.18-.42.18-.69Z"/>
        <path class="cls-1" d="m79.52,41.17c0-.24-.06-.43-.17-.58-.12-.15-.27-.27-.45-.36-.2-.09-.41-.17-.64-.23-.24-.06-.49-.12-.75-.17-.35-.08-.68-.17-1-.28-.31-.11-.59-.26-.82-.46-.25-.19-.44-.44-.58-.74-.14-.3-.21-.68-.21-1.12,0-.49.08-.93.24-1.29.17-.37.39-.67.67-.92.28-.24.61-.42,1-.54.37-.12.81-.18,1.28-.18s.96.05,1.43.15c.49.09.89.22,1.24.38v1.47c-.46-.19-.9-.33-1.33-.42-.42-.08-.82-.12-1.19-.12-.53,0-.95.1-1.24.3-.29.21-.44.51-.44.92,0,.24.05.44.15.59.1.15.23.28.39.38.16.1.35.18.56.24.21.06.44.12.69.17.37.09.73.18,1.08.29.35.11.65.26.92.46.27.19.47.45.63.77.15.31.23.72.23,1.21s-.09.95-.26,1.31c-.18.37-.43.67-.76.92-.33.24-.73.42-1.19.54-.47.11-.97.17-1.53.17-.48,0-.96-.05-1.42-.15-.47-.1-.85-.24-1.17-.42v-1.46c.44.2.87.35,1.28.44.42.09.85.14,1.3.14.25,0,.51-.02.75-.07.26-.04.48-.12.68-.22.2-.11.35-.26.48-.44.11-.19.18-.42.18-.69Z"/>
      </g>
      <path class="cls-4" d="m93.09,29.42c-8.11,0-14.7-6.6-14.7-14.71S84.98,0,93.09,0s14.72,6.6,14.72,14.71-6.6,14.71-14.72,14.71Zm0-20.32c-3.08,0-5.6,2.51-5.6,5.61s2.52,5.6,5.6,5.6,5.61-2.51,5.61-5.6-2.51-5.61-5.61-5.61Z"/>
      <polygon class="cls-3" points="18.67 1.12 0 20.44 6.28 26.9 18.52 14.21 30.95 26.89 37.22 20.44 18.67 1.12"/>
      <polygon class="cls-2" points="57.88 1.12 39.22 20.44 45.49 26.89 57.74 14.21 70.16 26.89 76.44 20.44 57.88 1.12"/>
    </g>
  </g>
</svg>