<svg width="19" height="22" viewBox="0 0 19 22" fill="none" xmlns="http://www.w3.org/2000/svg">
<path d="M1.42009 6.285C0.280089 9.425 0.810089 13.015 2.37009 15.965C3.08009 17.315 4.01009 18.565 5.20009 19.505C6.97009 20.915 9.34009 21.575 11.5701 21.215C13.8001 20.855 15.8601 19.435 16.9201 17.435C18.1101 15.175 18.0401 12.365 18.6101 9.935C19.1301 7.705 18.3401 4.395 16.6601 2.775C15.1301 1.295 12.8901 0.555001 10.7801 0.545001C8.77009 0.535001 6.12009 0.945 4.48009 2.165C3.09009 3.205 2.01009 4.645 1.42009 6.275V6.285Z" fill="#C2E696"/>
<path d="M6.04018 12.415C6.04018 12.795 5.51018 13.105 4.86018 13.105C4.21018 13.105 3.68018 12.795 3.68018 12.415C3.68018 12.035 4.21018 11.725 4.86018 11.725C5.51018 11.725 6.04018 12.035 6.04018 12.415Z" fill="#FF9FAA"/>
<path d="M17.9201 12.415C17.9201 12.795 17.3901 13.105 16.7401 13.105C16.0901 13.105 15.5601 12.795 15.5601 12.415C15.5601 12.035 16.0901 11.725 16.7401 11.725C17.3901 11.725 17.9201 12.035 17.9201 12.415Z" fill="#FF9FAA"/>
<path d="M12.9601 4.975C12.5101 4.975 12.0401 4.955 11.5901 4.775C11.5001 4.735 11.4101 4.695 11.3301 4.645C10.9701 4.825 10.5901 4.875 10.2901 4.895C9.47008 4.955 8.78008 4.815 8.25008 4.475C7.55008 4.035 7.18008 3.225 7.35008 2.505C7.39008 2.325 7.57008 2.205 7.75008 2.255C7.93008 2.295 8.04008 2.475 8.00008 2.655C7.88008 3.145 8.22008 3.655 8.61008 3.905C9.01008 4.165 9.56008 4.265 10.2401 4.215C10.4601 4.195 10.6401 4.175 10.7901 4.125C10.6701 3.935 10.5901 3.735 10.5701 3.515C10.5401 3.175 10.6801 2.735 11.0701 2.585C11.3001 2.495 11.5601 2.545 11.7701 2.705C12.0301 2.905 12.1701 3.255 12.1301 3.575C12.1001 3.785 12.0201 3.985 11.8901 4.165C12.2301 4.295 12.6301 4.305 13.0301 4.295C13.5501 4.295 14.1201 4.245 14.4001 3.895C14.5201 3.755 14.7301 3.725 14.8701 3.845C15.0201 3.965 15.0401 4.175 14.9201 4.315C14.4701 4.885 13.7101 4.955 13.0301 4.965H12.9601V4.975ZM11.3501 3.245C11.2701 3.245 11.2301 3.345 11.2401 3.465C11.2501 3.575 11.3001 3.685 11.3601 3.775C11.4201 3.695 11.4601 3.595 11.4701 3.505C11.4801 3.415 11.4301 3.305 11.3601 3.245H11.3501Z" fill="black"/>
<path d="M14.24 12.215C12.86 12.215 11.73 11.095 11.73 9.705C11.73 8.315 12.85 7.195 14.24 7.195C15.63 7.195 16.75 8.315 16.75 9.705C16.75 11.095 15.63 12.215 14.24 12.215ZM14.24 7.875C13.23 7.875 12.4 8.695 12.4 9.715C12.4 10.735 13.22 11.555 14.24 11.555C15.26 11.555 16.08 10.735 16.08 9.715C16.08 8.695 15.26 7.875 14.24 7.875Z" fill="black"/>
<path d="M7.5699 12.375C6.0999 12.375 4.8999 11.175 4.8999 9.705C4.8999 8.235 6.0999 7.035 7.5699 7.035C9.0399 7.035 10.2399 8.235 10.2399 9.705C10.2399 11.175 9.0399 12.375 7.5699 12.375ZM7.5699 7.705C6.4699 7.705 5.5699 8.605 5.5699 9.705C5.5699 10.805 6.4699 11.705 7.5699 11.705C8.6699 11.705 9.5699 10.805 9.5699 9.705C9.5699 8.605 8.6699 7.705 7.5699 7.705Z" fill="black"/>
<path d="M11.7899 9.985L10.0199 9.955C9.82994 9.955 9.68994 9.795 9.68994 9.615C9.68994 9.435 9.83994 9.285 10.0299 9.285L11.7999 9.315C11.9899 9.315 12.1299 9.475 12.1299 9.655C12.1299 9.835 11.9799 9.985 11.7899 9.985Z" fill="black"/>
<path d="M13.73 10.655C14.0171 10.655 14.25 10.4222 14.25 10.135C14.25 9.84781 14.0171 9.615 13.73 9.615C13.4428 9.615 13.21 9.84781 13.21 10.135C13.21 10.4222 13.4428 10.655 13.73 10.655Z" fill="black"/>
<path d="M8.36033 10.485C8.64752 10.485 8.88033 10.2522 8.88033 9.965C8.88033 9.67781 8.64752 9.445 8.36033 9.445C8.07314 9.445 7.84033 9.67781 7.84033 9.965C7.84033 10.2522 8.07314 10.485 8.36033 10.485Z" fill="black"/>
<path d="M10.8 14.525C10.12 14.525 9.54 14.225 9.22 13.975C9.08 13.855 9.05 13.645 9.17 13.505C9.29 13.365 9.5 13.335 9.64 13.455C9.64 13.455 10.77 14.345 11.85 13.455C11.99 13.335 12.21 13.355 12.32 13.505C12.44 13.645 12.42 13.855 12.27 13.975C11.77 14.385 11.26 14.525 10.79 14.525H10.8Z" fill="black"/>
</svg>
